<?xml version="1.0" encoding="utf-8"?>
<!-- Generator: Adobe Illustrator 24.1.2, SVG Export Plug-In . SVG Version: 6.00 Build 0)  -->
<svg version="1.1" id="Layer_1" xmlns="http://www.w3.org/2000/svg" xmlns:xlink="http://www.w3.org/1999/xlink" x="0px" y="0px"
	 viewBox="0 0 239.2 70.6" style="enable-background:new 0 0 239.2 70.6;" xml:space="preserve">
<style type="text/css">
	.st0{fill:#FFFFFF;}
</style>
<g>
	<g>
		<g>
			<path class="st0" d="M61.4,53.6c-10,0-18.1-8.1-18.1-18.1s8.1-18.1,18.1-18.1c10,0,18.1,8.1,18.1,18.1S71.4,53.6,61.4,53.6z
				 M61.3,17.4c-9.9,0-17.9,8.1-17.9,18s8.1,18,18,18c9.9,0,17.9-8.1,17.9-18S71.2,17.4,61.3,17.4z"/>
			<path class="st0" d="M61.4,53.7c-10.1,0-18.3-8.2-18.3-18.3s8.2-18.3,18.2-18.3c10.1,0,18.3,8.2,18.3,18.3S71.4,53.7,61.4,53.7z
				 M61.3,17.6c-9.8,0-17.8,8-17.8,17.9s8,17.9,17.9,17.9c9.8,0,17.8-8,17.8-17.9S71.2,17.6,61.3,17.6z"/>
		</g>
	</g>
	<g>
		<g>
			<path class="st0" d="M94.1,63.1c-15.2,0-27.6-12.4-27.6-27.6S78.8,7.8,94.1,7.8c15.2,0,27.6,12.4,27.6,27.6S109.3,63.1,94.1,63.1
				z M94.1,8C78.9,8,66.6,20.3,66.6,35.4s12.3,27.5,27.5,27.5c15.2,0,27.5-12.3,27.5-27.5S109.2,8,94.1,8z"/>
			<path class="st0" d="M94.1,63.2c-15.3,0-27.8-12.5-27.8-27.8S78.8,7.7,94.1,7.7s27.8,12.5,27.8,27.8S109.4,63.2,94.1,63.2z
				 M94.1,8.1C79,8.1,66.7,20.3,66.7,35.4S79,62.8,94.1,62.8s27.4-12.3,27.4-27.4S109.2,8.1,94.1,8.1z"/>
		</g>
	</g>
	<g>
		<g>
			<path class="st0" d="M116.6,25.9L116.6,25.9v11.8c0,2.5,1.7,8,9.7,8c8,0,9.7-5.4,9.7-8V25.9h-6.6v11.3c0,1.6-0.6,3.2-3,3.2
				c-2.4,0-3-1.6-3-3.2V25.9L116.6,25.9L116.6,25.9z"/>
		</g>
	</g>
	<g>
		<g>
			<path class="st0" d="M104.9,35.4c0-5.7-4.5-10.3-10.8-10.3c-6.4,0-10.8,4.6-10.8,10.3c0,5.7,4.4,10.3,10.8,10.3
				C100.4,45.7,104.9,41.1,104.9,35.4 M98.2,35.4c0,2.4-1.5,4.3-4.1,4.3c-2.6,0-4.1-1.9-4.1-4.3c0-2.4,1.5-4.3,4.1-4.3
				C96.7,31.1,98.2,33.1,98.2,35.4"/>
		</g>
	</g>
	<g>
		<g>
			<path class="st0" d="M72.2,35.4c0-5.7-4.5-10.3-10.8-10.3c-6.4,0-10.8,4.6-10.8,10.3c0,5.7,4.4,10.3,10.8,10.3
				C67.7,45.7,72.2,41.1,72.2,35.4 M65.4,35.4c0,2.4-1.5,4.3-4.1,4.3c-2.6,0-4.1-1.9-4.1-4.3c0-2.4,1.5-4.3,4.1-4.3
				C63.9,31.1,65.4,33.1,65.4,35.4"/>
		</g>
	</g>
</g>
<g>
	<polygon class="st0" points="32.4,25.9 32.4,32.8 26,32.8 26,25.9 19.6,25.9 19.6,44.8 26,44.8 26,38.4 32.4,38.4 32.4,44.8 
		38.9,44.8 38.9,25.9 	"/>
</g>
<g>
	<polygon class="st0" points="152.7,22.6 150.6,22.6 150.6,24.9 149.5,24.9 149.5,19.4 150.6,19.4 150.6,21.6 152.7,21.6 
		152.7,19.4 153.8,19.4 153.8,24.9 152.7,24.9 	"/>
</g>
<g>
	<path class="st0" d="M158.3,22.9h1.5l-0.6-2.6h-0.4L158.3,22.9z M158,19.4h2.1l1.2,5.5h-1.1l-0.2-1h-1.9l-0.2,1h-1.1L158,19.4z"/>
</g>
<g>
	<polygon class="st0" points="164.4,19.4 166.3,19.4 167.3,23.4 168.2,19.4 170.1,19.4 170.1,24.9 169,24.9 169,20.6 168.9,20.6 
		167.8,24.6 166.7,24.6 165.6,20.6 165.5,20.6 165.5,24.9 164.4,24.9 	"/>
</g>
<g>
	<g>
		<path class="st0" d="M174.7,22.6v1.3h1c0.4,0,0.7-0.1,0.7-0.7c0-0.4-0.3-0.7-0.7-0.7L174.7,22.6L174.7,22.6z M174.7,20.3v1.3h1
			c0.4,0,0.6-0.2,0.6-0.7c0-0.4-0.2-0.6-0.6-0.6H174.7z M175.8,19.4c1.1,0,1.7,0.4,1.7,1.4c0,0.6-0.2,0.9-0.6,1.2
			c0.5,0.2,0.7,0.6,0.7,1.2c0,1.1-0.7,1.6-1.8,1.6h-2.2v-5.5L175.8,19.4L175.8,19.4z"/>
	</g>
	<g>
		<path class="st0" d="M182.9,24c0.6,0,1-0.3,1-1v-3.7h1.1V23c0,1.4-0.7,2-2.1,2c-1.4,0-2.1-0.6-2.1-2v-3.7h1.1V23
			C181.9,23.7,182.3,24,182.9,24"/>
	</g>
	<g>
		<path class="st0" d="M190.6,20.3h-1v1.8h1c0.6,0,0.8-0.4,0.8-0.9C191.4,20.7,191.1,20.3,190.6,20.3 M189.5,23v1.9h-1.1v-5.5h2.1
			c1.2,0,1.9,0.6,1.9,1.8c0,0.8-0.3,1.3-0.8,1.6l0.8,2.1h-1.2l-0.6-1.9H189.5z"/>
	</g>
	<g>
		<path class="st0" d="M198,22h1.6v2.9c-0.6,0.1-1.2,0.2-1.9,0.2c-1.8,0-2.3-1-2.3-2.9c0-2,0.6-2.9,2.2-2.9c0.6,0,1.3,0.1,1.9,0.2
			l0,0.9c0,0-1-0.1-1.7-0.1c-1,0-1.2,0.3-1.2,1.9c0,1.5,0.2,1.9,1.2,1.9c0.3,0,0.7,0,0.7,0v-1.1H198L198,22z"/>
	</g>
	<g>
		<path class="st0" d="M152.7,35.5c0-1.3-0.2-1.9-1.1-1.9c-0.9,0-1.1,0.6-1.1,1.9c0,1.3,0.2,1.9,1.1,1.9
			C152.4,37.3,152.7,36.8,152.7,35.5 M149.2,35.5c0-1.9,0.6-2.9,2.3-2.9c1.7,0,2.3,1,2.3,2.9c0,1.9-0.6,2.8-2.3,2.8
			C149.8,38.3,149.2,37.3,149.2,35.5"/>
	</g>
	<g>
		<path class="st0" d="M159.1,35.6c0.6,0,0.8-0.3,0.8-1c0-0.7-0.3-1-0.8-1h-0.9v2H159.1z M158.2,36.6v1.6H157v-5.5h2
			c1.3,0,2,0.6,2,1.9c0,1.3-0.7,2-2,2L158.2,36.6L158.2,36.6z"/>
	</g>
</g>
<g>
	<polygon class="st0" points="164.1,32.7 167.7,32.7 167.7,33.7 165.2,33.7 165.2,34.9 167.2,34.9 167.2,35.9 165.2,35.9 
		165.2,37.2 167.7,37.2 167.7,38.2 164.1,38.2 	"/>
</g>
<g>
	<polygon class="st0" points="170.9,32.7 172.8,32.7 174.1,37.2 174.2,37.2 174.2,32.7 175.3,32.7 175.3,38.2 173.5,38.2 
		172.1,33.7 172,33.7 172,38.2 170.9,38.2 	"/>
</g>
<g>
	<g>
		<path class="st0" d="M186,35.5c0-1.3-0.2-1.9-1.1-1.9c-0.9,0-1.1,0.6-1.1,1.9c0,1.3,0.2,1.9,1.1,1.9C185.8,37.3,186,36.8,186,35.5
			 M182.6,35.5c0-1.9,0.6-2.9,2.3-2.9c1.7,0,2.3,1,2.3,2.9c0,1.9-0.6,2.8-2.3,2.8C183.1,38.3,182.6,37.3,182.6,35.5"/>
	</g>
</g>
<g>
	<polygon class="st0" points="190.4,32.7 192.3,32.7 193.6,37.2 193.7,37.2 193.7,32.7 194.8,32.7 194.8,38.2 193,38.2 191.6,33.7 
		191.5,33.7 191.5,38.2 190.4,38.2 	"/>
</g>
<g>
	<polygon class="st0" points="198.3,38.2 198.3,32.7 199.4,32.7 199.4,37.2 201.4,37.2 201.4,38.2 198.3,38.2 	"/>
</g>
<g>
	<rect x="204.4" y="32.7" class="st0" width="1.1" height="5.5"/>
</g>
<g>
	<polygon class="st0" points="209,32.7 210.9,32.7 212.2,37.2 212.3,37.2 212.3,32.7 213.4,32.7 213.4,38.2 211.6,38.2 210.2,33.7 
		210.1,33.7 210.1,38.2 209,38.2 	"/>
</g>
<g>
	<polygon class="st0" points="216.9,32.7 220.4,32.7 220.4,33.7 218,33.7 218,34.9 220,34.9 220,35.9 218,35.9 218,37.2 220.4,37.2 
		220.4,38.2 216.9,38.2 	"/>
</g>
<g>
	<g>
		<path class="st0" d="M151.5,50.6c0.6,0,1-0.3,1-1V46h1.1v3.7c0,1.4-0.7,2-2.1,2c-1.4,0-2.1-0.6-2.1-2V46h1.1v3.7
			C150.6,50.3,150.9,50.6,151.5,50.6"/>
	</g>
</g>
<g>
	<polygon class="st0" points="157.1,46 159,46 160.3,50.6 160.4,50.6 160.4,46 161.5,46 161.5,51.5 159.7,51.5 158.3,47 158.2,47 
		158.2,51.5 157.1,51.5 	"/>
</g>
<g>
	<rect x="165" y="46" class="st0" width="1.1" height="5.5"/>
</g>
<g>
	<polygon class="st0" points="173.7,46 172.4,51.5 170.4,51.5 169.1,46 170.2,46 171.2,50.6 171.6,50.6 172.5,46 	"/>
</g>
<g>
	<polygon class="st0" points="176.7,46 180.3,46 180.3,47 177.8,47 177.8,48.3 179.8,48.3 179.8,49.2 177.8,49.2 177.8,50.6 
		180.3,50.6 180.3,51.5 176.7,51.5 	"/>
</g>
<g>
	<g>
		<path class="st0" d="M185.6,46.9h-1v1.8h1c0.6,0,0.8-0.4,0.8-0.9C186.4,47.3,186.2,46.9,185.6,46.9 M184.6,49.7v1.9h-1.1V46h2.1
			c1.2,0,1.9,0.6,1.9,1.8c0,0.8-0.3,1.3-0.8,1.6l0.8,2.1h-1.2l-0.6-1.9H184.6z"/>
	</g>
	<g>
		<path class="st0" d="M194.1,47c0,0-1.1-0.1-1.6-0.1c-0.6,0-0.9,0.2-0.9,0.6c0,0.4,0.2,0.5,1.1,0.8c1.2,0.4,1.6,0.7,1.6,1.6
			c0,1.2-0.8,1.8-1.9,1.8c-0.6,0-1.2-0.1-1.9-0.2l0.1-0.9c0,0,1.1,0.2,1.6,0.2c0.6,0,0.8-0.3,0.8-0.7c0-0.3-0.2-0.5-1-0.7
			c-1.2-0.4-1.7-0.8-1.7-1.6c0-1.1,0.8-1.6,1.9-1.6c0.6,0,1.2,0.1,1.8,0.2L194.1,47z"/>
	</g>
</g>
<g>
	<rect x="197.5" y="46" class="st0" width="1.1" height="5.5"/>
</g>
<g>
	<polygon class="st0" points="201.6,46 205.6,46 205.6,47 204.2,47 204.2,51.5 203,51.5 203,47 201.5,47 201.5,46 	"/>
</g>
<g>
	<polygon class="st0" points="210.8,51.5 209.7,51.5 209.7,49.3 208,46 209.3,46 210.3,48.2 211.3,46 212.5,46 210.8,49.3 	"/>
</g>
</svg>
